<?xml version="1.0" standalone="no"?>
<!DOCTYPE svg PUBLIC "-//W3C//DTD SVG 20010904//EN"
 "http://www.w3.org/TR/2001/REC-SVG-20010904/DTD/svg10.dtd">
<svg version="1.0" xmlns="http://www.w3.org/2000/svg"
 width="64.000000pt" height="64.000000pt" viewBox="0 0 64.000000 64.000000"
 preserveAspectRatio="xMidYMid meet">

<g transform="translate(0.000000,64.000000) scale(0.100000,-0.100000)"
fill="#000000" stroke="none">
<path d="M102 570 c-38 -16 -43 -52 -40 -267 3 -178 5 -204 21 -220 16 -16 40
-18 237 -18 197 0 221 2 237 18 16 16 18 40 18 237 0 197 -2 221 -18 237 -16
16 -41 18 -225 20 -114 1 -217 -2 -230 -7z m446 -22 c17 -17 17 -439 0 -456
-17 -17 -439 -17 -456 0 -17 17 -17 439 0 456 17 17 439 17 456 0z"/>
<path d="M110 500 c0 -5 5 -10 10 -10 6 0 10 5 10 10 0 6 -4 10 -10 10 -5 0
-10 -4 -10 -10z"/>
<path d="M160 500 c0 -5 5 -10 10 -10 6 0 10 5 10 10 0 6 -4 10 -10 10 -5 0
-10 -4 -10 -10z"/>
<path d="M210 500 c0 -5 5 -10 10 -10 6 0 10 5 10 10 0 6 -4 10 -10 10 -5 0
-10 -4 -10 -10z"/>
<path d="M260 500 c0 -5 5 -10 10 -10 6 0 10 5 10 10 0 6 -4 10 -10 10 -5 0
-10 -4 -10 -10z"/>
<path d="M310 500 c0 -5 5 -10 10 -10 6 0 10 5 10 10 0 6 -4 10 -10 10 -5 0
-10 -4 -10 -10z"/>
<path d="M360 500 c0 -5 5 -10 10 -10 6 0 10 5 10 10 0 6 -4 10 -10 10 -5 0
-10 -4 -10 -10z"/>
<path d="M410 500 c0 -5 5 -10 10 -10 6 0 10 5 10 10 0 6 -4 10 -10 10 -5 0
-10 -4 -10 -10z"/>
<path d="M460 500 c0 -5 5 -10 10 -10 6 0 10 5 10 10 0 6 -4 10 -10 10 -5 0
-10 -4 -10 -10z"/>
<path d="M510 500 c0 -5 5 -10 10 -10 6 0 10 5 10 10 0 6 -4 10 -10 10 -5 0
-10 -4 -10 -10z"/>
<path d="M290 251 c0 -82 -9 -102 -36 -80 -11 9 -20 9 -41 0 l-26 -12 26 -27
c20 -19 36 -26 63 -25 57 2 67 19 72 128 l4 95 -31 0 -31 0 0 -79z m40 -19 c0
-98 -7 -112 -55 -112 -40 0 -77 25 -56 39 9 6 21 5 31 -1 10 -6 25 -8 34 -5
13 5 16 22 16 87 0 64 3 80 15 80 12 0 15 -16 15 -88z"/>
<path d="M407 312 c-34 -38 -20 -85 34 -113 40 -20 51 -39 24 -39 -8 0 -24 6
-35 12 -16 10 -23 10 -37 -4 -16 -16 -16 -19 1 -37 36 -40 119 -30 137 16 13
35 -8 74 -54 98 -44 24 -48 39 -9 31 37 -8 61 8 46 31 -16 26 -85 29 -107 5z
m92 -6 c9 -10 8 -15 -3 -19 -7 -3 -18 -1 -23 4 -13 13 -43 1 -43 -17 0 -8 15
-23 33 -34 17 -10 38 -24 45 -30 15 -14 16 -62 0 -78 -19 -19 -82 -15 -102 7
-23 25 -1 34 32 13 18 -11 25 -12 37 -2 25 21 17 37 -27 62 -46 25 -62 65 -37
94 15 18 73 18 88 0z"/>
</g>
</svg>
