<?xml version="1.0" standalone="no"?>
<!DOCTYPE svg PUBLIC "-//W3C//DTD SVG 20010904//EN"
 "http://www.w3.org/TR/2001/REC-SVG-20010904/DTD/svg10.dtd">
<svg version="1.0" xmlns="http://www.w3.org/2000/svg"
 width="393.000000pt" height="346.000000pt" viewBox="0 0 393.000000 346.000000"
 preserveAspectRatio="xMidYMid meet">

<g transform="translate(0.000000,346.000000) scale(0.100000,-0.100000)"
fill="#000000" stroke="none">
<path d="M2170 3336 c-224 -33 -463 -112 -715 -236 -287 -141 -494 -287 -676
-477 -104 -109 -179 -214 -215 -302 -27 -64 -30 -98 -11 -126 13 -19 37 -62
123 -222 68 -126 73 -132 117 -145 70 -20 276 -14 406 11 233 46 454 125 716
259 263 135 463 279 640 464 154 159 231 288 257 429 28 150 -58 278 -221 330
-86 27 -287 34 -421 15z"/>
<path d="M2974 3259 c4 -19 14 -71 21 -117 8 -45 17 -86 20 -91 3 -5 -9 -14
-26 -20 -21 -7 -28 -15 -23 -23 4 -7 29 -44 54 -83 40 -59 130 -206 148 -240
3 -5 -3 -3 -14 6 -14 12 -49 18 -129 23 -103 6 -222 16 -236 19 -9 3 -254
-335 -312 -430 -6 -9 -37 -333 -37 -387 0 -17 -2 -18 -17 -4 -15 13 -246 76
-343 94 -59 11 -100 26 -95 33 5 9 -249 -107 -507 -231 -164 -79 -137 -54
-298 -278 -62 -86 -76 -102 -67 -79 5 14 -4 18 -51 24 -31 3 -73 10 -92 15
-19 5 -64 12 -100 15 -36 4 -68 9 -71 10 -12 8 -250 35 -259 30 -10 -6 -12 0
-34 130 -9 50 -20 110 -25 135 -6 25 -10 79 -11 121 l0 76 -52 6 c-29 4 -56 3
-60 -1 -17 -17 -208 -548 -223 -617 -21 -102 -19 -244 3 -326 32 -116 102
-212 205 -283 122 -84 191 -105 963 -286 401 -94 812 -191 914 -215 154 -36
610 -143 687 -160 16 -4 23 1 28 17 4 13 89 230 190 483 100 253 239 604 308
780 70 176 183 464 253 640 152 386 166 433 166 580 1 118 -15 182 -66 270
-35 59 -153 167 -228 208 -52 29 -249 92 -572 184 -17 5 -18 2 -12 -28z"/>
</g>
</svg>
