<?xml version="1.0" standalone="no"?>
<!DOCTYPE svg PUBLIC "-//W3C//DTD SVG 20010904//EN"
 "http://www.w3.org/TR/2001/REC-SVG-20010904/DTD/svg10.dtd">
<svg version="1.0" xmlns="http://www.w3.org/2000/svg"
 width="64.000000pt" height="64.000000pt" viewBox="0 0 64.000000 64.000000"
 preserveAspectRatio="xMidYMid meet">

<g transform="translate(0.000000,64.000000) scale(0.100000,-0.100000)"
fill="#000000" stroke="none">
<path d="M360 416 l-34 -36 37 -38 37 -37 0 28 c0 27 0 27 70 27 63 0 70 2 70
20 0 18 -7 20 -69 20 -67 0 -70 1 -73 26 l-3 25 -35 -35z"/>
<path d="M280 307 c0 -27 0 -27 -70 -27 -63 0 -70 -2 -70 -20 0 -18 7 -20 70
-20 70 0 70 0 70 -27 l0 -28 37 38 38 37 -38 37 -37 38 0 -28z"/>
</g>
</svg>
