<?xml version="1.0" standalone="no"?>
<!DOCTYPE svg PUBLIC "-//W3C//DTD SVG 20010904//EN"
 "http://www.w3.org/TR/2001/REC-SVG-20010904/DTD/svg10.dtd">
<svg version="1.0" xmlns="http://www.w3.org/2000/svg"
 width="80.000000pt" height="80.000000pt" viewBox="0 0 80.000000 80.000000"
 preserveAspectRatio="xMidYMid meet">

<g transform="translate(0.000000,80.000000) scale(0.100000,-0.100000)"
fill="#000000" stroke="none">
<path d="M140 400 l0 -360 280 0 280 0 0 268 0 267 -93 93 -92 92 -188 0 -187
0 0 -360z m360 250 l0 -90 90 0 90 0 0 -250 0 -250 -260 0 -260 0 0 340 0 340
170 0 170 0 0 -90z m105 10 l80 -80 -83 0 -82 0 0 80 c0 44 1 80 3 80 1 0 38
-36 82 -80z"/>
<path d="M256 397 c13 -38 13 -48 0 -85 -9 -24 -11 -42 -5 -42 5 0 12 7 14 15
16 50 17 51 31 18 8 -18 19 -33 25 -33 7 0 8 7 4 18 -25 61 -26 70 -11 107 19
44 19 45 7 45 -5 0 -14 -15 -20 -32 -9 -26 -14 -30 -21 -18 -5 8 -10 23 -10
33 0 9 -6 17 -14 17 -13 0 -13 -6 0 -43z"/>
<path d="M376 409 c-10 -51 -7 -141 4 -134 6 3 10 32 10 63 1 63 13 55 25 -15
4 -24 11 -45 15 -48 9 -6 30 56 30 87 0 9 5 20 10 23 6 4 10 -17 10 -54 0 -34
4 -61 10 -61 11 0 13 75 4 133 -9 54 -27 41 -43 -34 -15 -70 -23 -65 -36 25
-8 53 -29 61 -39 15z"/>
<path d="M540 355 l0 -85 35 0 c19 0 35 5 35 10 0 6 -9 10 -20 10 -18 0 -20 7
-20 75 0 60 -3 75 -15 75 -12 0 -15 -16 -15 -85z"/>
</g>
</svg>
